<?xml version="1.0" encoding="utf-8"?>
<!-- Generator: Adobe Illustrator 18.0.0, SVG Export Plug-In . SVG Version: 6.00 Build 0)  -->
<!DOCTYPE svg PUBLIC "-//W3C//DTD SVG 1.1//EN" "http://www.w3.org/Graphics/SVG/1.1/DTD/svg11.dtd">
<svg version="1.1" xmlns="http://www.w3.org/2000/svg" xmlns:xlink="http://www.w3.org/1999/xlink" x="0px" y="0px"
	 viewBox="0 0 868 323.7" enable-background="new 0 0 868 323.7" xml:space="preserve">
<g id="Ebene_2" display="none">
	<rect x="-230.8" y="-162.7" display="inline" fill="#4D4D4D" width="1114.2" height="626.6"/>
</g>
<g id="Ebene_1">
	<g>
		<path fill="#FFFFFF" d="M136.4,272h-11.8l-59-155.2h10.5c1.3,0,2.4,0.4,3.2,1.2c0.8,0.8,1.4,1.6,1.8,2.6L127.1,243
			c0.9,2.4,1.6,4.7,2.1,6.9c0.5,2.2,0.9,4.4,1.4,6.6c0.5-2.2,1-4.4,1.5-6.6c0.5-2.2,1.2-4.5,2-6.8l46.3-122.5
			c0.5-1.1,1.1-2.1,1.9-2.7c0.8-0.7,1.8-1,2.9-1h10.1L136.4,272z"/>
		<path fill="#FFFFFF" d="M244.8,63.3c0,1.9-0.4,3.6-1.1,5.2c-0.7,1.6-1.6,3-2.7,4.3s-2.4,2.2-3.9,3c-1.5,0.7-3.1,1.1-4.8,1.1
			c-1.7,0-3.3-0.4-4.8-1.1c-1.5-0.7-2.8-1.7-3.9-3s-2-2.7-2.7-4.3c-0.7-1.6-1-3.4-1-5.2s0.3-3.7,1-5.4c0.7-1.7,1.5-3.2,2.7-4.4
			s2.4-2.2,3.9-3c1.5-0.7,3.1-1.1,4.8-1.1c1.7,0,3.3,0.4,4.8,1.1c1.5,0.7,2.8,1.7,3.9,3s2,2.7,2.7,4.4
			C244.5,59.6,244.8,61.4,244.8,63.3z M238.9,116.8V272h-13.3V116.8H238.9z"/>
		<path fill="#FFFFFF" d="M365.3,136.1c-0.7,1.5-1.7,2.2-3.1,2.2c-1,0-2.4-0.6-4-2c-1.6-1.3-3.8-2.8-6.5-4.4
			c-2.7-1.6-5.9-3.1-9.8-4.4c-3.9-1.3-8.6-2-14.3-2c-5.1,0-9.7,0.8-13.8,2.4c-4.2,1.6-7.7,3.8-10.7,6.5c-2.9,2.7-5.2,5.8-6.9,9.4
			c-1.6,3.6-2.5,7.3-2.5,11.3c0,4.9,1.1,8.9,3.4,12.1s5.2,6,8.8,8.2c3.7,2.3,7.8,4.3,12.4,5.9s9.4,3.3,14.3,5
			c4.9,1.7,9.6,3.5,14.3,5.5c4.6,2,8.8,4.6,12.4,7.6c3.7,3,6.6,6.7,8.8,11.1c2.2,4.4,3.4,9.7,3.4,15.9c0,6.8-1.1,13.1-3.3,18.9
			c-2.2,5.8-5.4,10.9-9.5,15.1c-4.2,4.3-9.3,7.6-15.4,10.1c-6.1,2.5-13,3.7-20.8,3.7c-9.8,0-18.3-1.7-25.4-5.2
			c-7.1-3.5-13.5-8-19.1-13.6l3.2-5.3c0.5-0.8,1-1.5,1.5-1.9c0.6-0.4,1.4-0.6,2.4-0.6c1.2,0,2.7,0.8,4.5,2.5
			c1.8,1.7,4.1,3.5,6.9,5.4c2.9,1.9,6.4,3.7,10.7,5.4c4.3,1.7,9.5,2.5,15.8,2.5c5.9,0,11.1-0.9,15.6-2.7c4.5-1.8,8.2-4.3,11.2-7.4
			c3-3.1,5.3-6.8,6.8-11c1.5-4.2,2.3-8.7,2.3-13.3c0-5.2-1.1-9.5-3.4-12.9c-2.2-3.4-5.2-6.3-8.8-8.7c-3.7-2.4-7.8-4.4-12.4-6.1
			c-4.6-1.7-9.4-3.3-14.3-5c-4.9-1.7-9.7-3.5-14.3-5.5c-4.6-2-8.8-4.5-12.4-7.5c-3.7-3-6.6-6.7-8.8-11c-2.2-4.3-3.4-9.7-3.4-16.1
			c0-5.5,1.1-10.8,3.2-15.9c2.2-5.1,5.2-9.6,9.2-13.4c4-3.8,8.8-6.9,14.5-9.2c5.7-2.3,12.1-3.4,19.2-3.4c8.5,0,16.1,1.4,22.7,4.1
			c6.6,2.7,12.7,6.9,18.2,12.6L365.3,136.1z"/>
		<path fill="#FFFFFF" d="M418.9,116.8V216c0,14.6,3,26,9,34.2c6,8.3,15.2,12.4,27.5,12.4c9.1,0,17.6-2.6,25.5-7.7
			c7.9-5.1,15-12.3,21.3-21.5V116.8h13.3V272h-7.4c-2.6,0-3.9-1.4-4-4.1l-1.3-23.1c-6.5,8.9-13.9,16.1-22.4,21.5
			c-8.5,5.4-17.9,8.1-28.3,8.1c-7.8,0-14.6-1.4-20.4-4.1c-5.8-2.7-10.6-6.6-14.5-11.7c-3.8-5.1-6.7-11.2-8.7-18.4
			c-2-7.2-3-15.3-3-24.3v-99.2H418.9z"/>
		<path fill="#FFFFFF" d="M650.1,272c-2.8,0-4.5-1.5-5.2-4.4l-2-19.8c-3.8,4.2-7.7,7.9-11.4,11.2c-3.8,3.3-7.7,6.1-11.9,8.4
			c-4.1,2.3-8.6,4-13.3,5.2s-10,1.8-15.7,1.8c-4.8,0-9.4-0.8-13.9-2.3c-4.5-1.6-8.5-4-11.9-7.2c-3.5-3.2-6.2-7.4-8.4-12.4
			c-2.1-5-3.2-11.1-3.2-18.2c0-6.6,1.7-12.6,5.1-18.3c3.4-5.6,8.6-10.5,15.8-14.7c7.2-4.2,16.4-7.5,27.7-10
			c11.3-2.5,24.8-4,40.6-4.4v-16.2c0-14.4-2.8-25.4-8.4-33.2c-5.6-7.7-13.8-11.6-24.8-11.6c-6.7,0-12.5,1-17.2,3.1
			c-4.7,2.1-8.7,4.4-12,6.9c-3.3,2.5-5.9,4.8-8,6.9c-2.1,2.1-3.8,3.1-5.2,3.1c-1.9,0-3.3-0.9-4.2-2.8l-2.4-4.5
			c7.3-8.1,15-14.2,23-18.4c8-4.2,17.2-6.2,27.4-6.2c7.5,0,14,1.3,19.7,4s10.3,6.4,14,11.4c3.7,4.9,6.5,10.9,8.4,17.9
			c1.9,7,2.8,14.8,2.8,23.5V272H650.1z M594,263.8c5.4,0,10.4-0.6,15-2c4.5-1.3,8.8-3.1,12.6-5.5c3.9-2.3,7.5-5.1,10.9-8.3
			c3.4-3.2,6.7-6.7,10-10.5v-40.4c-13.3,0.4-24.7,1.5-34.3,3.4c-9.6,1.8-17.5,4.3-23.7,7.4c-6.2,3.1-10.8,6.8-13.8,11.2
			c-2.9,4.3-4.4,9.2-4.4,14.7c0,5.2,0.8,9.7,2.3,13.5c1.5,3.8,3.6,6.9,6.1,9.4c2.5,2.4,5.5,4.2,8.8,5.4
			C586.8,263.2,590.3,263.8,594,263.8z"/>
		<path fill="#FE4040" d="M826.6,271c1.9,0,3.7-0.1,5.5-0.4c1.8-0.2,3.8-0.7,6.2-1.4l-6,27.5c-8,4-16.1,6-24.3,6
			c-8.4,0-14.8-2.2-19.2-6.5c-4.3-4.3-7.1-10.7-8.3-19.2l-13.7-104.2h-0.7l-68.6,125h-44l108-161.4l-9.5-47
			c-1.2-5.6-3.8-9.5-7.7-11.6c-4-2.1-8.9-3.2-14.8-3.2c-4.7,0-73.2,22.8-80,24.7l12-24.1c4.7-1.4,66.5-31.5,71.4-32.1
			c4.8-0.6,9.6-0.9,14.3-0.9c7.3,0,13.4,0.8,18.5,2.5c5,1.6,9.2,4.4,12.5,8.3c3.3,3.9,6,8.9,8.1,15.1c2.1,6.2,3.9,13.8,5.3,22.7
			l26.8,172.8c0.5,3.3,1.5,5.3,3,6.2C822.7,270.5,824.5,271,826.6,271z"/>
	</g>
	<g display="none">
		<path display="inline" fill="#2BA6CB" d="M651.8,133.9c-22.9,46.5-43.4,96.1-61.7,148.7l-36.6,3.7
			c25.4-69.9,55.1-136.4,89.1-199.5c-2.7-16.3-6.3-32.5-10.9-48.6c-3.5-5.2-8.4-10.2-14.9-15c-6.3-3.8-17.9-5.9-34.7-6.4l-0.8-36.4
			c24.9,3,42.2,7.3,51.6,12.9c11.5,6.6,19.8,15.6,25,27.3c7.5,15.8,13.5,40.6,18,74.3c8.8,57.6,15.8,91.7,20.8,102.2
			c4.4,13.9,10.2,22.7,17.5,26.4c7.4,4.8,21.4,7.2,42.2,7.3l0.8,36.4c-25.7-0.7-44.4-4.8-56-12.5c-13.6-7.4-23-17-28.1-28.6
			C664.2,207.2,657.1,176.4,651.8,133.9z"/>
	</g>
	<g display="none">
		<rect x="717.7" y="188.8" display="inline" fill="none" width="167" height="74.2"/>
		<path display="inline" fill="#FFFFFF" d="M772.7,226.7c0,6.3-0.7,11.7-2,16.3c-1.4,4.6-3.2,8.4-5.5,11.4c-2.3,3-5.1,5.2-8.3,6.7
			c-3.2,1.5-6.6,2.2-10.2,2.2c-3.7,0-7.1-0.7-10.2-2.2c-3.2-1.5-5.9-3.7-8.2-6.7c-2.3-3-4.2-6.8-5.5-11.4c-1.3-4.6-2-10-2-16.3
			s0.7-11.7,2-16.3c1.3-4.6,3.2-8.4,5.5-11.4c2.3-3,5.1-5.3,8.2-6.7c3.1-1.5,6.6-2.2,10.2-2.2c3.6,0,7,0.7,10.2,2.2s5.9,3.7,8.3,6.7
			c2.3,3,4.2,6.8,5.5,11.4C772,215,772.7,220.5,772.7,226.7z M763.4,226.7c0-5.5-0.5-10.1-1.4-13.8c-0.9-3.7-2.1-6.7-3.7-9
			c-1.5-2.3-3.3-3.9-5.4-4.9s-4.1-1.5-6.3-1.5s-4.3,0.5-6.3,1.5c-2,1-3.8,2.6-5.4,4.9s-2.8,5.3-3.7,9c-0.9,3.7-1.4,8.3-1.4,13.8
			s0.5,10,1.4,13.8c0.9,3.7,2.1,6.7,3.7,9s3.3,3.9,5.4,4.9c2,1,4.1,1.5,6.3,1.5s4.3-0.5,6.3-1.5s3.8-2.6,5.4-4.9
			c1.6-2.3,2.8-5.2,3.7-9S763.4,232.2,763.4,226.7z"/>
		<path display="inline" fill="#FFFFFF" d="M780.1,257c0-0.9,0.2-1.7,0.5-2.5c0.3-0.8,0.8-1.4,1.3-2c0.5-0.6,1.2-1,2-1.3
			s1.6-0.5,2.5-0.5c0.9,0,1.7,0.2,2.5,0.5c0.8,0.3,1.4,0.8,2,1.3c0.6,0.6,1,1.2,1.3,2c0.3,0.8,0.5,1.6,0.5,2.5
			c0,0.9-0.2,1.7-0.5,2.5c-0.3,0.8-0.8,1.4-1.3,2c-0.6,0.6-1.2,1-2,1.3c-0.8,0.3-1.6,0.5-2.5,0.5c-0.9,0-1.7-0.2-2.5-0.5
			s-1.4-0.8-2-1.3c-0.5-0.6-1-1.2-1.3-2C780.2,258.8,780.1,257.9,780.1,257z"/>
		<path display="inline" fill="#FFFFFF" d="M811.2,255.7h15.4v-48.9c0-1.5,0-2.9,0.1-4.4L814,213.4c-0.3,0.3-0.7,0.5-1,0.6
			c-0.3,0.1-0.6,0.2-1,0.2c-0.5,0-0.9-0.1-1.3-0.3s-0.7-0.5-0.9-0.8l-2.8-3.8l21.3-18.5h7.2v65h14.1v6.8h-38.4V255.7z"/>
	</g>
</g>
</svg>
